# AST/ASF file generated using VICON BodyLanguage
# -----------------------------------------------
:version 1.10
:name VICON
:units
  mass 1.0
  length 0.45
  angle deg
:documentation
   .ast/.asf automatically generated from VICON data using
   VICON BodyBuilder and BodyLanguage model FoxedUp or BRILLIANT.MOD
:root
   order TX TY TZ RX RY RZ
   axis XYZ
   position 0 0 0  
   orientation 0 0 0 
:bonedata
  begin
     id 1 
     name lhipjoint
     direction 0.624716 -0.669793 0.401383 
     length 2.38238 
     axis 0 0 0  XYZ
  end
  begin
     id 2 
     name lfemur
     direction 0.34202 -0.939693 0  
     length 6.4574  
     axis 0 0 20  XYZ
    dof rx ry rz
    limits (-160.0 20.0)
           (-70.0 70.0)
           (-60.0 70.0)
  end
  begin
     id 3 
     name ltibia
     direction 0.34202 -0.939693 0   
     length 7.68739   
     axis 0 0 20   XYZ
    dof rx
    limits (-10.0 170.0)
  end
  begin
     id 4 
     name lfoot
     direction 0.0681309 -0.187188 0.979959   
     length 2.46615   
     axis -90 7.62852e-016 20   XYZ
    dof rx rz
    limits (-45.0 90.0)
           (-70.0 20.0)
  end
  begin
     id 5 
     name ltoes
     direction 1.53566e-011 -4.21819e-011 1   
     length 1.2376   
     axis -90 7.62852e-016 20   XYZ
    dof rx
    limits (-90.0 20.0)
  end
  begin
     id 6 
     name rhipjoint
     direction -0.644473 -0.655875 0.393043   
     length 2.43293  
     axis 0 0 0  XYZ 
  end
  begin
     id 7 
     name rfemur
     direction -0.34202 -0.939693 0   
     length 6.7025   
     axis 0 0 -20   XYZ
    dof rx ry rz
    limits (-160.0 20.0)
           (-70.0 70.0)
           (-70.0 60.0)
  end
  begin
     id 8 
     name rtibia
     direction -0.34202 -0.939693 0   
     length 7.80547   
     axis 0 0 -20   XYZ
    dof rx
    limits (-10.0 170.0)
 end
 begin
     id 9 
     name rfoot
     direction -0.0756734 -0.207911 0.975216   
     length 2.40315  
     axis -90 -7.62852e-016 -20   XYZ
    dof rx rz
    limits (-45.0 90.0)
           (-20.0 70.0)
  end
  begin
     id 10 
     name rtoes
     direction -1.5353e-011 -4.21879e-011 1   
     length 1.20477   
     axis -90 -7.62852e-016 -20   XYZ
    dof rx
    limits (-90.0 20.0)
  end
  begin
     id 11 
     name lowerback
     direction 0.0160353 0.987463 -0.157037   
     length 2.18572   
     axis 0 0 0   XYZ
    dof rx ry rz
    limits (-20.0 45.0)
           (-30.0 30.0)
           (-30.0 30.0)
  end
  begin
     id 12 
     name upperback
     direction -0.00499661 0.999756 0.0215076   
     length 2.18016   
     axis 0 0 0   XYZ
    dof rx ry rz
    limits (-20.0 45.0)
           (-30.0 30.0)
           (-30.0 30.0)
  end
  begin
     id 13 
     name thorax
     direction -0.00921346 0.995333 0.0960619   
     length 2.24923   
     axis 0 0 0   XYZ
    dof rx ry rz
    limits (-20.0 45.0)
           (-30.0 30.0)
           (-30.0 30.0)
  end
  begin
     id 14 
     name lowerneck
     direction 0.0274184 0.991181 0.12965   
     length 1.70911   
     axis 0 0 0   XYZ
    dof rx ry rz
    limits (-20.0 45.0)
           (-30.0 30.0)
           (-30.0 30.0)
  end
  begin
     id 15 
     name upperneck
     direction 0.0015627 0.999959 -0.00893559   
     length 1.69312   
     axis 0 0 0   XYZ
    dof rx ry rz
    limits (-20.0 45.0)
           (-30.0 30.0)
           (-30.0 30.0)
  end
  begin
     id 16
     name head
     direction -0.00230242 0.999856 -0.0168327  
     length 1.80241  
     axis 0 0 0   XYZ
    dof rx ry rz
    limits (-20.0 45.0)
           (-30.0 30.0)
           (-30.0 30.0)
  end
  begin
     id 17 
     name lclavicle
     direction 0.955523 0.290741 -0.0494489  
     length 3.84275  
     axis 0 0 0   XYZ
    dof ry rz
    limits (-20.0 10.0)
           (0.0 20.0)
  end
  begin
     id 18 
     name lhumerus
     direction 1 -4.48967e-011 -3.18382e-028   
     length 5.17714   
     axis 180 -30 -90   XYZ
    dof rx ry rz
    limits (-60.0 90.0)
           (-90.0 90.0)
           (-90.0 90.0)
  end
  begin
     id 19
     name lradius
     direction 1 -4.48968e-011 -2.22911e-027   
     length 3.43679   
     axis 180 -30 -90   XYZ
    dof rx
    limits (-10.0 170.0)
  end
  begin
     id 20
     name lwrist
     direction 1 -4.48951e-011 -6.32245e-027   
     length 1.7184   
     axis 3.57107e-015 90 90   XYZ
    dof ry
    limits (-180.0 0.0)
 end
  begin
     id 21 
     name lhand
     direction 1 -4.48924e-011 -1.26431e-026   
     length 0.573117   
     axis 8.06912e-015 90 90   XYZ
    dof rx rz
    limits (-90.0 90.0)
           (-45.0 45.0)
  end
  begin
     id 22 
     name lfingers
     direction 1 -4.49001e-011 -2.52965e-026   
     length 0.462062   
     axis 1.61381e-014 90 90   XYZ
    dof rx
    limits (0.0 90.0)
  end
  begin
     id 23
     name lthumb
     direction 0.707107 -6.35008e-011 0.707107   
     length 0.663431   
     axis -90 45 -1.62303e-014   XYZ
    dof rx rz
    limits (-45.0 45.0)
           (-45.0 45.0)
  end
  begin
     id 24 
     name rclavicle
     direction -0.963917 0.256881 -0.0698287   
     length 3.73057  
     axis 0 0 0   XYZ 
    dof ry rz
    limits (-10.0 20.0)
           (-20.0 0.0)
  end
  begin
     id 25 
     name rhumerus
     direction -1 -4.48962e-011 -2.73982e-027  
     length 5.23908   
     axis 180 30 90   XYZ
    dof rx ry rz
    limits (-90.0 60.0)
           (-90.0 90.0)
           (-90.0 90.0)
  end
  begin
     id 26 
     name rradius
     direction -1 -4.48968e-011 -4.33218e-027   
     length 3.46485   
     axis 180 30 90   XYZ
    dof rx
    limits (-10.0 170.0)
  end
  begin
     id 27 
     name rwrist
     direction -1 -4.48989e-011 -6.32372e-027   
     length 1.73243   
     axis 3.57107e-015 -90 -90   XYZ
    dof ry
    limits (-180.0 0.0)
  end
  begin
     id 28
     name rhand
     direction -1 -4.48948e-011 -1.26448e-026   
     length 0.608752   
     axis 8.06912e-015 -90 -90   XYZ
    dof rx rz
    limits (-90.0 90.0)
           (-45.0 45.0)
  end
  begin
     id 29
     name rfingers
     direction -1 -4.48962e-011 -2.52913e-026   
     length 0.490792   
     axis 1.61381e-014 -90 -90   XYZ
    dof rx
    limits (0.0 90.0)
  end
  begin
     id 30
     name rthumb
     direction -0.707107 -6.34878e-011 0.707107   
     length 0.704682   
     axis -90 -45 1.62303e-014   XYZ
    dof rx rz
    limits (-45.0 45.0)
           (-45.0 45.0)
  end
:hierarchy
  begin
    root lhipjoint rhipjoint lowerback
    lhipjoint lfemur
    lfemur ltibia
    ltibia lfoot
    lfoot ltoes
    rhipjoint rfemur
    rfemur rtibia
    rtibia rfoot
    rfoot rtoes
    lowerback upperback
    upperback thorax
    thorax lowerneck lclavicle rclavicle
    lowerneck upperneck
    upperneck head
    lclavicle lhumerus
    lhumerus lradius
    lradius lwrist
    lwrist lhand lthumb
    lhand lfingers
    rclavicle rhumerus
    rhumerus rradius
    rradius rwrist
    rwrist rhand rthumb
    rhand rfingers
  end

#!OML:ASF G:\JayActor3\Patient Classification 1\Patient 1\Session 6\male.ASF
:FULLY-SPECIFIED
:DEGREES
474
root 43.8698 15.3256 11.7911 181.064 -49.9988 -177.084
lowerback 15.767 -0.125782 4.88061
upperback 13.7217 -1.39011 -0.0708234
thorax 5.87716 -1.00987 -2.73819
lowerneck 9.55386 -0.487262 1.18745
upperneck -13.7671 -0.299473 2.16288
head -5.73161 -0.434945 0.515022
rclavicle -1.18277e-014 1.93815e-015
rhumerus -15.8284 11.558 -86.6212
rradius 73.7343
rwrist 4.87421
rhand -23.0192 -6.1592
rfingers 7.12502
rthumb 3.42459 -36.1114
lclavicle -1.18277e-014 1.93815e-015
lhumerus -22.3201 -3.28242 82.6169
lradius 56.0044
lwrist 21.1681
lhand -27.8358 7.38774
lfingers 7.12502
lthumb -1.22737 37.364
rfemur -28.0153 7.30298 32.0016
rtibia 51.3045
rfoot -27.5629 -17.2479
rtoes 5.01196
lfemur -48.2116 1.16268 -11.6996
ltibia 73.8517
lfoot -8.06262 4.70822
ltoes -11.7519
475
root 43.8547 15.3187 11.7726 181.004 -49.9779 -177.081
lowerback 15.8317 -0.104033 4.88299
upperback 13.7476 -1.36724 -0.0568831
thorax 5.87502 -1.00197 -2.72661
lowerneck 9.60662 -0.4991 1.19488
upperneck -13.8357 -0.312999 2.16283
head -5.76214 -0.443529 0.515438
rclavicle 7.46436e-014 -8.56762e-014
rhumerus -15.7513 11.5374 -86.6053
rradius 73.8882
rwrist 4.87577
rhand -23.1781 -6.14371
rfingers 7.12502
rthumb 3.27111 -36.0984
lclavicle 7.46436e-014 -8.56762e-014
lhumerus -22.4445 -3.33413 82.6291
lradius 56.0769
lwrist 21.2402
lhand -27.8014 7.13919
lfingers 7.12502
lthumb -1.19406 37.1156
rfemur -27.9105 7.20191 32.0471
rtibia 51.4121
rfoot -27.6644 -17.1242
rtoes 5.07601
lfemur -48.6554 1.19081 -11.8793
ltibia 73.2015
lfoot -7.75646 4.87272
ltoes -11.0783
476
root 43.8392 15.3123 11.7538 180.95 -49.9527 -177.077
lowerback 15.8881 -0.0815319 4.88576
upperback 13.7732 -1.34347 -0.0432455
thorax 5.87703 -0.993327 -2.71585
lowerneck 9.65319 -0.508441 1.20298
upperneck -13.9016 -0.323495 2.16114
head -5.7908 -0.450505 0.51497
rclavicle -1.6027e-014 -2.127e-014
rhumerus -15.6743 11.5161 -86.5899
rradius 74.0456
rwrist 4.8782
rhand -23.3438 -6.12609
rfingers 7.12502
rthumb 3.11111 -36.0831
lclavicle -1.6027e-014 -2.127e-014
lhumerus -22.5725 -3.39362 82.6432
lradius 56.1477
lwrist 21.3224
lhand -27.7918 6.78056
lfingers 7.12502
lthumb -1.18486 36.757
rfemur -27.806 7.10215 32.0926
rtibia 51.5098
rfoot -27.7652 -17.0025
rtoes 5.13396
lfemur -49.079 1.23268 -12.0679
ltibia 72.5288
lfoot -7.39699 5.01713
ltoes -10.2807
477
root 43.8238 15.3067 11.7349 180.9 -49.9259 -177.068
lowerback 15.9378 -0.0590094 4.8924
upperback 13.7985 -1.31927 -0.0311304
thorax 5.88228 -0.983869 -2.70907
lowerneck 9.69327 -0.516249 1.21792
upperneck -13.9651 -0.331477 2.15691
head -5.81764 -0.456404 0.512356
rclavicle 3.50109e-014 -1.53313e-014
rhumerus -15.586 11.489 -86.5773
rradius 74.1965
rwrist 4.89541
rhand -23.5002 -6.10418
rfingers 7.12502
rthumb 2.96005 -36.0634
lclavicle 3.50109e-014 -1.53313e-014
lhumerus -22.6955 -3.46629 82.6546
lradius 56.2175
lwrist 21.4052
lhand -27.7898 6.41551
lfingers 7.12502
lthumb -1.18294 36.392
rfemur -27.7012 7.00535 32.1406
rtibia 51.593
rfoot -27.8704 -16.8795
rtoes 5.18886
lfemur -49.4879 1.28739 -12.2646
ltibia 71.8327
lfoot -6.95095 5.15308
ltoes -9.54818
478
root 43.8084 15.3016 11.7159 180.854 -49.9003 -177.054
lowerback 15.9795 -0.0368233 4.90295
upperback 13.8219 -1.29478 -0.0187863
thorax 5.88972 -0.973641 -2.7044
lowerneck 9.73084 -0.524391 1.23671
upperneck -14.0252 -0.339752 2.15009
head -5.84303 -0.462375 0.50829
rclavicle 6.19463e-014 4.4975e-015
rhumerus -15.4954 11.4553 -86.5656
rradius 74.347
rwrist 4.9357
rhand -23.64 -6.0763
rfingers 7.12502
rthumb 2.82505 -36.0373
lclavicle 6.19463e-014 4.4975e-015
lhumerus -22.8202 -3.55154 82.6652
lradius 56.3039
lwrist 21.4774
lhand -27.7765 6.13356
lfingers 7.12502
lthumb -1.17003 36.1101
rfemur -27.5976 6.91456 32.1919
rtibia 51.6594
rfoot -27.9735 -16.7631
rtoes 5.20994
lfemur -49.8827 1.34873 -12.4668
ltibia 71.1125
lfoot -6.43168 5.28025
ltoes -8.9639
479
root 43.7932 15.2982 11.6967 180.812 -49.8774 -177.033
lowerback 16.0148 -0.0158753 4.91653
upperback 13.8435 -1.27131 -0.00464628
thorax 5.89837 -0.963516 -2.69947
lowerneck 9.76796 -0.533081 1.25495
upperneck -14.0844 -0.349204 2.14081
head -5.86803 -0.468668 0.50363
rclavicle -5.26779e-014 6.95746e-014
rhumerus -15.3968 11.4163 -86.5529
rradius 74.4928
rwrist 5.00995
rhand -23.7531 -6.03993
rfingers 7.12502
rthumb 2.7158 -36.0024
lclavicle -5.26779e-014 6.95746e-014
lhumerus -22.9424 -3.64447 82.6758
lradius 56.4108
lwrist 21.5299
lhand -27.738 6.01546
lfingers 7.12502
lthumb -1.13286 35.9922
rfemur -27.4907 6.83029 32.2468
rtibia 51.7025
rfoot -28.0806 -16.6416
rtoes 5.26272
lfemur -50.274 1.40905 -12.667
ltibia 70.3669
lfoot -5.84879 5.3994
ltoes -8.21806
480
root 43.778 15.2966 11.6771 180.78 -49.8537 -177.023
lowerback 16.0466 0.00450349 4.92023
upperback 13.8639 -1.24945 0.0101851
thorax 5.90733 -0.954896 -2.68814
lowerneck 9.81445 -0.540853 1.26415
upperneck -14.1475 -0.357864 2.13556
head -5.8959 -0.474467 0.501726
rclavicle -1.29955e-014 2.43511e-015
rhumerus -15.2922 11.3796 -86.5373
rradius 74.6319
rwrist 5.11907
rhand -23.841 -6.00448
rfingers 7.12502
rthumb 2.63091 -35.968
lclavicle -1.29955e-014 2.43511e-015
lhumerus -23.0723 -3.7338 82.6893
lradius 56.5421
lwrist 21.562
lhand -27.6735 6.04138
lfingers 7.12502
lthumb -1.07056 36.0184
rfemur -27.3749 6.75422 32.2931
rtibia 51.7284
rfoot -28.1857 -16.5155
rtoes 5.32205
lfemur -50.6445 1.47068 -12.883
ltibia 69.593
lfoot -5.21528 5.51717
ltoes -7.50973
481
root 43.7625 15.2962 11.6574 180.755 -49.8289 -177.022
lowerback 16.0767 0.0256758 4.91886
upperback 13.8838 -1.22688 0.0232643
thorax 5.91638 -0.946145 -2.67592
lowerneck 9.87378 -0.548816 1.269
upperneck -14.2184 -0.366509 2.13365
head -5.92841 -0.480434 0.501695
rclavicle 4.1633e-014 1.59028e-014
rhumerus -15.1942 11.336 -86.5232
rradius 74.7767
rwrist 5.2622
rhand -23.9048 -5.96641
rfingers 7.12502
rthumb 2.56927 -35.9307
lclavicle 4.1633e-014 1.59028e-014
lhumerus -23.2076 -3.8276 82.7032
lradius 56.7005
lwrist 21.5689
lhand -27.5782 6.24526
lfingers 7.12502
lthumb -0.978555 36.2228
rfemur -27.2515 6.68862 32.3317
rtibia 51.7433
rfoot -28.2806 -16.3945
rtoes 5.39332
lfemur -50.9913 1.53842 -13.1179
ltibia 68.7916
lfoot -4.55511 5.62589
ltoes -6.80162
482
root 43.7468 15.2951 11.6375 180.739 -49.8039 -177.035
lowerback 16.1084 0.0467501 4.90731
upperback 13.9043 -1.20557 0.0343234
thorax 5.9251 -0.938804 -2.66001
lowerneck 9.93215 -0.556447 1.27441
upperneck -14.2872 -0.375046 2.12891
head -5.9601 -0.486097 0.50066
rclavicle 4.10366e-014 -3.52222e-014
rhumerus -15.093 11.2909 -86.5099
rradius 74.9183
rwrist 5.42883
rhand -23.9562 -5.92392
rfingers 7.12502
rthumb 2.51967 -35.8888
lclavicle 4.10366e-014 -3.52222e-014
lhumerus -23.3551 -3.92186 82.7179
lradius 56.871
lwrist 21.5745
lhand -27.4866 6.41492
lfingers 7.12502
lthumb -0.890051 36.3928
rfemur -27.1284 6.62884 32.359
rtibia 51.7654
rfoot -28.3702 -16.2765
rtoes 5.48445
lfemur -51.3001 1.63071 -13.3978
ltibia 67.9691
lfoot -3.86761 5.71214
ltoes -6.67886
483
root 43.7308 15.2925 11.6176 180.724 -49.7767 -177.051
lowerback 16.1415 0.067324 4.893
upperback 13.9262 -1.18555 0.0444269
thorax 5.93446 -0.932409 -2.64346
lowerneck 9.98148 -0.562906 1.28235
upperneck -14.3501 -0.382432 2.12069
head -5.98844 -0.490946 0.497951
rclavicle -2.97991e-014 -9.60378e-015
rhumerus -14.9911 11.2453 -86.4998
rradius 75.0623
rwrist 5.60517
rhand -24.0003 -5.87888
rfingers 7.12502
rthumb 2.47703 -35.8442
lclavicle -2.97991e-014 -9.60378e-015
lhumerus -23.4988 -4.01898 82.7292
lradius 57.0407
lwrist 21.5842
lhand -27.4015 6.55808
lfingers 7.12502
lthumb -0.807824 36.5363
rfemur -27.0122 6.58282 32.3852
rtibia 51.8037
rfoot -28.4466 -16.1795
rtoes 5.56421
lfemur -51.5706 1.74989 -13.7138
ltibia 67.1253
lfoot -3.18133 5.75217
ltoes -6.80218
484
root 43.7144 15.2881 11.5978 180.713 -49.749 -177.075
lowerback 16.1754 0.0876919 4.87505
upperback 13.95 -1.16656 0.0526088
thorax 5.94533 -0.926815 -2.62685
lowerneck 10.0223 -0.567872 1.2916
upperneck -14.4073 -0.388278 2.10977
head -6.01354 -0.494785 0.493985
rclavicle 4.46955e-014 -1.00635e-014
rhumerus -14.8935 11.1977 -86.4927
rradius 75.2143
rwrist 5.77844
rhand -24.0497 -5.83251
rfingers 7.12502
rthumb 2.42935 -35.7984
lclavicle 4.46955e-014 -1.00635e-014
lhumerus -23.6471 -4.12022 82.7385
lradius 57.2222
lwrist 21.5998
lhand -27.3232 6.68198
lfingers 7.12502
lthumb -0.732213 36.6605
rfemur -26.9052 6.54086 32.4062
rtibia 51.8617
rfoot -28.5222 -16.0907
rtoes 5.67254
lfemur -51.7981 1.88976 -14.0657
ltibia 66.2596
lfoot -2.52589 5.7321
ltoes -7.06554
485
root 43.6979 15.2821 11.578 180.695 -49.7218 -177.088
lowerback 16.209 0.107465 4.86739
upperback 13.9768 -1.14798 0.0585739
thorax 5.96007 -0.920582 -2.61844
lowerneck 10.0452 -0.572788 1.31065
upperneck -14.4541 -0.393629 2.09577
head -6.03233 -0.498492 0.487259
rclavicle -1.78254e-014 2.64321e-014
rhumerus -14.7891 11.1416 -86.4927
rradius 75.3675
rwrist 5.93864
rhand -24.1076 -5.78448
rfingers 7.12502
rthumb 2.37345 -35.751
lclavicle -1.78254e-014 2.64321e-014
lhumerus -23.7859 -4.2335 82.7395
lradius 57.4045
lwrist 21.6266
lhand -27.2482 6.78772
lfingers 7.12502
lthumb -0.659832 36.7664
rfemur -26.8052 6.49926 32.4336
rtibia 51.9295
rfoot -28.5968 -16.0036
rtoes 5.80944
lfemur -51.9929 2.05112 -14.4376
ltibia 65.3687
lfoot -1.88721 5.63963
ltoes -7.51204
486
root 43.6811 15.2765 11.5582 180.676 -49.6958 -177.098
lowerback 16.2403 0.125362 4.8683
upperback 14.0043 -1.13111 0.0627531
thorax 5.97681 -0.914375 -2.61661
lowerneck 10.0652 -0.578656 1.33181
upperneck -14.4981 -0.400193 2.0807
head -6.04977 -0.502761 0.479917
rclavicle -2.59499e-014 -1.42706e-014
rhumerus -14.6873 11.0832 -86.4987
rradius 75.5268
rwrist 6.07253
rhand -24.1813 -5.73847
rfingers 7.12502
rthumb 2.30223 -35.7058
lclavicle -2.59499e-014 -1.42706e-014
lhumerus -23.9208 -4.35573 82.7339
lradius 57.5872
lwrist 21.6628
lhand -27.1649 6.87661
lfingers 7.12502
lthumb -0.579323 36.8556
rfemur -26.7023 6.45766 32.4623
rtibia 51.991
rfoot -28.665 -15.9282
rtoes 5.90788
lfemur -52.1598 2.20511 -14.804
ltibia 64.4398
lfoot -1.27915 5.46053
ltoes -7.9099
487
root 43.6643 15.2727 11.5385 180.647 -49.6684 -177.091
lowerback 16.2702 0.141704 4.88391
upperback 14.032 -1.11487 0.0669277
thorax 5.99467 -0.907289 -2.62301
lowerneck 10.0796 -0.583043 1.34974
upperneck -14.5374 -0.405005 2.06853
head -6.06473 -0.506132 0.47383
rclavicle 5.64898e-014 -4.81649e-014
rhumerus -14.5845 11.0225 -86.5108
rradius 75.693
rwrist 6.18643
rhand -24.2612 -5.71418
rfingers 7.12502
rthumb 2.22514 -35.6823
lclavicle 5.64898e-014 -4.81649e-014
lhumerus -24.0558 -4.48463 82.7221
lradius 57.7741
lwrist 21.704
lhand -27.0775 6.94651
lfingers 7.12502
lthumb -0.494895 36.9257
rfemur -26.5925 6.41782 32.5004
rtibia 52.0347
rfoot -28.7172 -15.8563
rtoes 6.00503
lfemur -52.3174 2.34791 -15.1416
ltibia 63.469
lfoot -0.644914 5.1192
ltoes -9.00487
488
root 43.6474 15.2711 11.5187 180.626 -49.6394 -177.09
lowerback 16.297 0.157703 4.8999
upperback 14.0603 -1.09913 0.0681358
thorax 6.01481 -0.900165 -2.6328
lowerneck 10.0949 -0.587763 1.36436
upperneck -14.5776 -0.410183 2.06037
head -6.08012 -0.509846 0.469594
rclavicle -6.54219e-014 -7.10655e-015
rhumerus -14.4808 10.9603 -86.5267
rradius 75.8657
rwrist 6.28074
rhand -24.3468 -5.70469
rfingers 7.12502
rthumb 2.14244 -35.6737
lclavicle -6.54219e-014 -7.10655e-015
lhumerus -24.1954 -4.6182 82.7058
lradius 57.9689
lwrist 21.7473
lhand -26.9919 6.98592
lfingers 7.12502
lthumb -0.412252 36.9653
rfemur -26.4749 6.37248 32.53
rtibia 52.0611
rfoot -28.7484 -15.7935
rtoes 6.05598
lfemur -52.4557 2.4705 -15.465
ltibia 62.4514
lfoot 0.0027106 4.65357
ltoes -10.3614
